<?xml version="1.0" encoding="utf-8"?>
<!-- Generator: Adobe Illustrator 16.0.0, SVG Export Plug-In . SVG Version: 6.00 Build 0)  -->
<!DOCTYPE svg PUBLIC "-//W3C//DTD SVG 1.1//EN" "http://www.w3.org/Graphics/SVG/1.1/DTD/svg11.dtd">
<svg version="1.1" id="Layer_1" xmlns="http://www.w3.org/2000/svg" xmlns:xlink="http://www.w3.org/1999/xlink" x="0px" y="0px"
	 width="57.914px" height="36.877px" viewBox="0 0 57.914 36.877" enable-background="new 0 0 57.914 36.877" xml:space="preserve">
<g>
	<defs>
		<rect id="SVGID_1_" width="57.914" height="36.877"/>
	</defs>
	<clipPath id="SVGID_2_">
		<use xlink:href="#SVGID_1_"  overflow="visible"/>
	</clipPath>
	<path clip-path="url(#SVGID_2_)" fill-rule="evenodd" clip-rule="evenodd" d="M52.783,15.158h-1.219v-0.227v-0.85
		c0-1.53,0.028-3.062-0.028-4.621c0-0.227-0.256-0.68-0.426-0.709c-1.389-0.056-2.806-0.029-4.28-0.029v5.387v1.049h-6.463v1.135
		c0.057,1.162,0.113,2.324,0.17,3.486c1.134,0.057,2.268,0.086,3.402,0.113c0.963,0.028,1.898,0,2.947,0v6.351h4.649v-6.351h6.378
		V16.32v-1.162H52.783z M34.5,14.62c-3.997,0.057-8.022,0.027-12.048,0.027c-1.134,0-2.296,0-3.429,0.03
		c-0.227,0-0.625,0.283-0.625,0.424c-0.028,2.325-0.028,4.622-0.028,7.059h9.837c-0.113,0.482-0.199,0.823-0.312,1.162
		c-1.502,4.481-6.122,6.691-11.083,5.898c-6.152-1.021-9.978-6.72-8.902-12.9c0.171-0.85,0.426-1.673,0.794-2.467
		c2.041-4.478,7.059-7.2,12.048-6.094c1.785,0.368,3.288,1.248,4.62,2.381c1.786-1.786,3.515-3.543,5.386-5.415
		c-0.142-0.085-0.312-0.226-0.453-0.34C25.939,0.7,20.979-0.633,15.366,0.274C7.344,1.579,1.561,7.901,0.285,15.3
		c-0.566,3.175-0.311,6.521,0.964,9.753c3.062,7.852,10.942,12.643,19.39,11.708c4.109-0.454,7.766-1.929,10.658-4.99
		c4.225-4.536,5.329-9.979,4.648-15.961C35.832,14.818,35.437,14.62,34.5,14.62"/>
</g>
</svg>
