<?xml version="1.0" encoding="utf-8"?>
<!-- Generator: Adobe Illustrator 16.0.0, SVG Export Plug-In . SVG Version: 6.00 Build 0)  -->
<!DOCTYPE svg PUBLIC "-//W3C//DTD SVG 1.1//EN" "http://www.w3.org/Graphics/SVG/1.1/DTD/svg11.dtd">
<svg version="1.1" id="Layer_1" xmlns="http://www.w3.org/2000/svg" xmlns:xlink="http://www.w3.org/1999/xlink" x="0px" y="0px"
	 width="66.359px" height="53.1px" viewBox="0 0 66.359 53.1" enable-background="new 0 0 66.359 53.1" xml:space="preserve">
<g>
	<defs>
		<rect id="SVGID_1_" width="66.359" height="53.1"/>
	</defs>
	<clipPath id="SVGID_2_">
		<use xlink:href="#SVGID_1_"  overflow="visible"/>
	</clipPath>
	<path clip-path="url(#SVGID_2_)" fill-rule="evenodd" clip-rule="evenodd" d="M66.359,6.294c-2.438,1.077-5.046,1.786-7.796,2.098
		c2.807-1.644,4.961-4.281,5.981-7.4c-2.636,1.532-5.556,2.637-8.646,3.261C53.405,1.646,49.861,0,45.95,0
		c-7.513,0-13.607,6.011-13.607,13.409c0,1.05,0.114,2.07,0.34,3.063c-11.31-0.568-21.345-5.897-28.063-14.005
		C3.458,4.451,2.778,6.749,2.778,9.214c0,4.65,2.409,8.731,6.066,11.141c-2.239-0.056-4.337-0.679-6.18-1.672v0.17
		c0,1.701,0.34,3.345,0.936,4.848c1.672,4.195,5.414,7.371,10.006,8.307c-1.162,0.283-2.352,0.453-3.6,0.453
		c-0.879,0-1.729-0.085-2.551-0.229c1.729,5.304,6.746,9.187,12.699,9.3c-4.649,3.602-10.517,5.727-16.895,5.727
		c-1.105,0-2.182-0.056-3.259-0.169c6.038,3.798,13.209,6.01,20.891,6.01c21.26,0,34.355-14.743,37.786-30.051
		c0.623-2.694,0.935-5.415,0.935-8.08c0-0.567,0-1.162-0.028-1.729C62.249,11.34,64.545,8.987,66.359,6.294"/>
</g>
</svg>
