<?xml version="1.0" encoding="utf-8"?>
<!-- Generator: Adobe Illustrator 16.0.0, SVG Export Plug-In . SVG Version: 6.00 Build 0)  -->
<!DOCTYPE svg PUBLIC "-//W3C//DTD SVG 1.1//EN" "http://www.w3.org/Graphics/SVG/1.1/DTD/svg11.dtd">
<svg version="1.1" id="Layer_1" xmlns="http://www.w3.org/2000/svg" xmlns:xlink="http://www.w3.org/1999/xlink" x="0px" y="0px"
	 width="444.521px" height="43.588px" viewBox="0 0 444.521 43.588" enable-background="new 0 0 444.521 43.588"
	 xml:space="preserve">
<path fill="#936C5A" d="M212.623,14.843l12.014-12.015l12.015,12.015l-12.015,12.015L212.623,14.843z M224.637,0l-14.842,14.843
	l14.842,14.842l14.843-14.842L224.637,0z"/>
<path fill="#936C5A" d="M213.098,28.746l12.014-12.015l12.015,12.015L225.111,40.76L213.098,28.746z M210.269,28.746l14.843,14.842
	l14.844-14.842l-14.844-14.843L210.269,28.746z"/>
<path fill="#936C5A" d="M244.762,36.433L229.92,21.59l14.842-14.842l14.842,14.842L244.762,36.433z M232.748,21.59l12.014,12.015
	l12.015-12.015L244.762,9.576L232.748,21.59z"/>
<path fill="#936C5A" d="M204.999,36.829l-14.842-14.842l14.842-14.843l14.842,14.843L204.999,36.829z M192.985,21.987l12.014,12.014
	l12.014-12.014L204.999,9.972L192.985,21.987z"/>
<polygon fill="#936C5A" points="0,21.987 188.261,23.173 188.261,20.801 "/>
<polygon fill="#936C5A" points="261.887,23.173 444.521,21.987 261.887,20.801 "/>
</svg>
