<?xml version="1.0" encoding="utf-8"?>
<!-- Generator: Adobe Illustrator 16.0.0, SVG Export Plug-In . SVG Version: 6.00 Build 0)  -->
<!DOCTYPE svg PUBLIC "-//W3C//DTD SVG 1.1//EN" "http://www.w3.org/Graphics/SVG/1.1/DTD/svg11.dtd">
<svg version="1.1" id="Layer_1" xmlns="http://www.w3.org/2000/svg" xmlns:xlink="http://www.w3.org/1999/xlink" x="0px" y="0px"
	 width="66.359px" height="48.676px" viewBox="0 0 66.359 48.676" enable-background="new 0 0 66.359 48.676" xml:space="preserve">
<g>
	<defs>
		<rect id="SVGID_1_" width="66.359" height="48.676"/>
	</defs>
	<clipPath id="SVGID_2_">
		<use xlink:href="#SVGID_1_"  overflow="visible"/>
	</clipPath>
	<path clip-path="url(#SVGID_2_)" fill-rule="evenodd" clip-rule="evenodd" d="M44.249,23.644l-17.916,9.667V18.398v-4.507
		l8.079,4.394L44.249,23.644z M65.707,10.518c0,0-0.651-4.791-2.636-6.889c-2.522-2.75-5.357-2.75-6.662-2.92
		C47.111,0,33.193,0,33.193,0h-0.028c0,0-13.917,0-23.215,0.709c-1.304,0.17-4.11,0.17-6.661,2.92
		c-1.984,2.098-2.608,6.889-2.608,6.889S0,16.103,0,21.716v0.653v4.591c0,5.586,0.681,11.198,0.681,11.198s0.624,4.764,2.608,6.86
		c2.551,2.75,5.868,2.665,7.342,2.949c5.301,0.538,22.563,0.708,22.563,0.708s13.918-0.027,23.216-0.708
		c1.305-0.171,4.14-0.199,6.662-2.949c1.984-2.097,2.636-6.86,2.636-6.86s0.652-5.612,0.652-11.198v-4.28v-0.964
		C66.359,16.103,65.707,10.518,65.707,10.518"/>
</g>
</svg>
